<svg xmlns="http://www.w3.org/2000/svg" xmlns:xlink="http://www.w3.org/1999/xlink" width="52" zoomAndPan="magnify" viewBox="0 0 39 59.249999" height="79" preserveAspectRatio="xMidYMid meet" version="1.0"><defs><clipPath id="6fd39302e4"><path d="M 0.242188 0 L 38.015625 0 L 38.015625 58.507812 L 0.242188 58.507812 Z M 0.242188 0 " clip-rule="nonzero"/></clipPath><clipPath id="a60be721c9"><path d="M 0.242188 1 L 38 1 L 38 58 L 0.242188 58 Z M 0.242188 1 " clip-rule="nonzero"/></clipPath><clipPath id="7aac7d00c3"><path d="M 0.242188 0 L 38.015625 0 L 38.015625 58.507812 L 0.242188 58.507812 Z M 0.242188 0 " clip-rule="nonzero"/></clipPath><clipPath id="2f2e7d1a92"><path d="M 0.242188 1 L 38 1 L 38 58 L 0.242188 58 Z M 0.242188 1 " clip-rule="nonzero"/></clipPath></defs><g clip-path="url(#6fd39302e4)"><path fill="#4b58ff" d="M 19.015625 -44.289062 C -16.113281 -44.289062 -44.667969 -15.734375 -44.667969 19.34375 C -44.667969 20.324219 -44.621094 43.144531 -25.765625 67.039062 C -25.648438 67.152344 -14.738281 79.25 -14.738281 105.289062 C -14.738281 107.433594 -13.011719 109.15625 -10.84375 109.15625 L 48.945312 109.15625 C 51.113281 109.15625 52.8125 107.433594 52.8125 105.289062 C 52.8125 79.53125 63.746094 67.152344 64 66.804688 C 82.695312 43.144531 82.71875 20.324219 82.71875 19.390625 C 82.695312 -15.734375 54.117188 -44.289062 19.015625 -44.289062 Z M 58.128906 61.792969 C 57.613281 62.351562 46.191406 75.054688 45.144531 101.441406 L -7.117188 101.441406 C -8.164062 75.054688 -19.585938 62.351562 -19.914062 62.027344 C -36.835938 40.605469 -36.929688 19.625 -36.929688 19.390625 C -36.929688 -11.46875 -11.824219 -36.574219 19.015625 -36.574219 C 49.875 -36.574219 74.957031 -11.46875 74.957031 19.390625 C 74.957031 19.625 74.863281 40.605469 58.128906 61.792969 Z M 58.128906 61.792969 " fill-opacity="1" fill-rule="nonzero"/></g><g clip-path="url(#a60be721c9)"><path fill="#4b58ff" d="M 22.742188 18.390625 L 31.8125 5.148438 C 32.277344 4.449219 32.324219 3.542969 31.949219 2.773438 C 31.554688 2.027344 30.761719 1.558594 29.945312 1.558594 L 8.664062 1.558594 C 7.617188 1.558594 6.707031 2.28125 6.449219 3.308594 L 1.042969 25.3125 C 0.785156 26.453125 1.367188 27.597656 2.464844 27.992188 L 14.773438 32.679688 L 10.761719 54.683594 C 10.550781 55.730469 11.136719 56.78125 12.136719 57.199219 C 12.441406 57.292969 12.71875 57.363281 13.023438 57.363281 C 13.746094 57.363281 14.46875 57.039062 14.910156 56.382812 L 36.707031 25.125 C 37.125 24.519531 37.195312 23.726562 36.9375 23.027344 C 36.707031 22.328125 36.125 21.792969 35.402344 21.628906 Z M 22.742188 18.390625 " fill-opacity="1" fill-rule="nonzero"/></g><g clip-path="url(#7aac7d00c3)"><path fill="#4b58ff" d="M 19.015625 -44.289062 C -16.113281 -44.289062 -44.667969 -15.734375 -44.667969 19.34375 C -44.667969 20.324219 -44.621094 43.144531 -25.765625 67.039062 C -25.648438 67.152344 -14.738281 79.25 -14.738281 105.289062 C -14.738281 107.433594 -13.011719 109.15625 -10.84375 109.15625 L 48.945312 109.15625 C 51.113281 109.15625 52.8125 107.433594 52.8125 105.289062 C 52.8125 79.53125 63.746094 67.152344 64 66.804688 C 82.695312 43.144531 82.71875 20.324219 82.71875 19.390625 C 82.695312 -15.734375 54.117188 -44.289062 19.015625 -44.289062 Z M 58.128906 61.792969 C 57.613281 62.351562 46.191406 75.054688 45.144531 101.441406 L -7.117188 101.441406 C -8.164062 75.054688 -19.585938 62.351562 -19.914062 62.027344 C -36.835938 40.605469 -36.929688 19.625 -36.929688 19.390625 C -36.929688 -11.46875 -11.824219 -36.574219 19.015625 -36.574219 C 49.875 -36.574219 74.957031 -11.46875 74.957031 19.390625 C 74.957031 19.625 74.863281 40.605469 58.128906 61.792969 Z M 58.128906 61.792969 " fill-opacity="1" fill-rule="nonzero"/></g><g clip-path="url(#2f2e7d1a92)"><path fill="#4b58ff" d="M 22.742188 18.390625 L 31.8125 5.148438 C 32.277344 4.449219 32.324219 3.542969 31.949219 2.773438 C 31.554688 2.027344 30.761719 1.558594 29.945312 1.558594 L 8.664062 1.558594 C 7.617188 1.558594 6.707031 2.28125 6.449219 3.308594 L 1.042969 25.3125 C 0.785156 26.453125 1.367188 27.597656 2.464844 27.992188 L 14.773438 32.679688 L 10.761719 54.683594 C 10.550781 55.730469 11.136719 56.78125 12.136719 57.199219 C 12.441406 57.292969 12.71875 57.363281 13.023438 57.363281 C 13.746094 57.363281 14.46875 57.039062 14.910156 56.382812 L 36.707031 25.125 C 37.125 24.519531 37.195312 23.726562 36.9375 23.027344 C 36.707031 22.328125 36.125 21.792969 35.402344 21.628906 Z M 22.742188 18.390625 " fill-opacity="1" fill-rule="nonzero"/></g></svg>