<svg xmlns="http://www.w3.org/2000/svg" xmlns:xlink="http://www.w3.org/1999/xlink" width="52" zoomAndPan="magnify" viewBox="0 0 39 57.749997" height="77" preserveAspectRatio="xMidYMid meet" version="1.0"><defs><clipPath id="cb6f903377"><path d="M 15 55 L 23 55 L 23 57.5 L 15 57.5 Z M 15 55 " clip-rule="nonzero"/></clipPath><clipPath id="6f66ce106d"><path d="M 11.703125 5.949219 L 25.144531 5.949219 L 25.144531 27.605469 L 11.703125 27.605469 Z M 11.703125 5.949219 " clip-rule="nonzero"/></clipPath><clipPath id="5baf83e744"><path d="M 13 12 L 24 12 L 24 27.605469 L 13 27.605469 Z M 13 12 " clip-rule="nonzero"/></clipPath></defs><path fill="#1e1c1c" d="M 18.886719 0.226562 C 9.179688 0.226562 1.292969 8.113281 1.292969 17.804688 C 1.292969 18.078125 1.304688 24.382812 6.515625 30.980469 C 6.546875 31.015625 9.5625 34.355469 9.5625 41.550781 C 9.5625 42.140625 10.039062 42.617188 10.636719 42.617188 L 27.15625 42.617188 C 27.753906 42.617188 28.222656 42.140625 28.222656 41.550781 C 28.222656 34.433594 31.246094 31.015625 31.316406 30.917969 C 36.480469 24.382812 36.488281 18.078125 36.488281 17.820312 C 36.480469 8.113281 28.585938 0.226562 18.886719 0.226562 Z M 29.691406 29.53125 C 29.550781 29.6875 26.394531 33.195312 26.105469 40.488281 L 11.667969 40.488281 C 11.378906 33.195312 8.222656 29.6875 8.132812 29.597656 C 3.457031 23.679688 3.429688 17.882812 3.429688 17.820312 C 3.429688 9.292969 10.367188 2.355469 18.886719 2.355469 C 27.414062 2.355469 34.34375 9.292969 34.34375 17.820312 C 34.34375 17.882812 34.316406 23.679688 29.691406 29.53125 Z M 29.691406 29.53125 " fill-opacity="1" fill-rule="nonzero"/><path fill="#1e1c1c" d="M 26.273438 48.175781 L 11.5 48.175781 C 10.914062 48.175781 10.4375 48.652344 10.4375 49.238281 C 10.4375 49.832031 10.914062 50.308594 11.5 50.308594 L 26.277344 50.308594 C 26.867188 50.308594 27.339844 49.832031 27.339844 49.238281 C 27.339844 48.660156 26.859375 48.175781 26.273438 48.175781 Z M 26.273438 48.175781 " fill-opacity="1" fill-rule="nonzero"/><path fill="#1e1c1c" d="M 26.273438 44.402344 L 11.5 44.402344 C 10.914062 44.402344 10.4375 44.871094 10.4375 45.464844 C 10.4375 46.058594 10.914062 46.535156 11.5 46.535156 L 26.277344 46.535156 C 26.867188 46.535156 27.339844 46.058594 27.339844 45.464844 C 27.339844 44.871094 26.859375 44.402344 26.273438 44.402344 Z M 26.273438 44.402344 " fill-opacity="1" fill-rule="nonzero"/><path fill="#1e1c1c" d="M 26.273438 51.949219 L 11.5 51.949219 C 10.914062 51.949219 10.4375 52.425781 10.4375 53.019531 C 10.4375 53.605469 10.914062 54.089844 11.5 54.089844 L 26.277344 54.089844 C 26.867188 54.089844 27.339844 53.605469 27.339844 53.019531 C 27.339844 52.433594 26.859375 51.949219 26.273438 51.949219 Z M 26.273438 51.949219 " fill-opacity="1" fill-rule="nonzero"/><g clip-path="url(#cb6f903377)"><path fill="#1e1c1c" d="M 20.925781 55.609375 L 16.84375 55.609375 C 16.253906 55.609375 15.777344 56.085938 15.777344 56.671875 C 15.777344 57.261719 16.253906 57.738281 16.84375 57.738281 L 20.933594 57.738281 C 21.527344 57.738281 22.003906 57.261719 22.003906 56.671875 C 21.996094 56.085938 21.519531 55.609375 20.925781 55.609375 Z M 20.925781 55.609375 " fill-opacity="1" fill-rule="nonzero"/></g><path fill="#1e1c1c" d="M 19.917969 17.542969 L 22.421875 13.882812 C 22.550781 13.691406 22.5625 13.441406 22.460938 13.226562 C 22.351562 13.019531 22.132812 12.890625 21.90625 12.890625 L 16.027344 12.890625 C 15.738281 12.890625 15.484375 13.09375 15.414062 13.375 L 13.921875 19.453125 C 13.851562 19.769531 14.011719 20.085938 14.3125 20.195312 L 17.714844 21.488281 L 16.605469 27.570312 C 16.546875 27.859375 16.710938 28.148438 16.988281 28.265625 C 17.070312 28.289062 17.148438 28.308594 17.230469 28.308594 C 17.429688 28.308594 17.628906 28.21875 17.753906 28.039062 L 23.773438 19.402344 C 23.890625 19.234375 23.910156 19.015625 23.839844 18.824219 C 23.773438 18.628906 23.613281 18.480469 23.414062 18.4375 Z M 19.917969 17.542969 " fill-opacity="1" fill-rule="nonzero"/><g clip-path="url(#6f66ce106d)"><path fill="#4b58ff" d="M 18.144531 -0.558594 C 8.441406 -0.558594 0.550781 7.328125 0.550781 17.023438 C 0.550781 17.292969 0.566406 23.597656 5.773438 30.199219 C 5.808594 30.230469 8.820312 33.570312 8.820312 40.765625 C 8.820312 41.359375 9.296875 41.835938 9.894531 41.835938 L 26.414062 41.835938 C 27.011719 41.835938 27.484375 41.359375 27.484375 40.765625 C 27.484375 33.648438 30.503906 30.230469 30.574219 30.132812 C 35.738281 23.597656 35.746094 17.292969 35.746094 17.035156 C 35.738281 7.328125 27.84375 -0.558594 18.144531 -0.558594 Z M 28.953125 28.75 C 28.808594 28.902344 25.65625 32.414062 25.363281 39.703125 L 10.925781 39.703125 C 10.636719 32.414062 7.480469 28.902344 7.390625 28.8125 C 2.714844 22.894531 2.691406 17.097656 2.691406 17.035156 C 2.691406 8.507812 9.625 1.574219 18.144531 1.574219 C 26.671875 1.574219 33.601562 8.507812 33.601562 17.035156 C 33.601562 17.097656 33.574219 22.894531 28.953125 28.75 Z M 28.953125 28.75 " fill-opacity="1" fill-rule="nonzero"/></g><g clip-path="url(#5baf83e744)"><path fill="#4b58ff" d="M 19.175781 16.757812 L 21.679688 13.101562 C 21.808594 12.90625 21.824219 12.65625 21.71875 12.441406 C 21.609375 12.238281 21.390625 12.109375 21.164062 12.109375 L 15.285156 12.109375 C 14.996094 12.109375 14.746094 12.308594 14.675781 12.589844 L 13.179688 18.671875 C 13.109375 18.984375 13.269531 19.300781 13.574219 19.410156 L 16.972656 20.707031 L 15.867188 26.785156 C 15.808594 27.074219 15.96875 27.363281 16.246094 27.480469 C 16.328125 27.503906 16.40625 27.523438 16.492188 27.523438 C 16.691406 27.523438 16.890625 27.433594 17.011719 27.253906 L 23.035156 18.617188 C 23.148438 18.453125 23.167969 18.230469 23.097656 18.039062 C 23.035156 17.847656 22.871094 17.699219 22.671875 17.652344 Z M 19.175781 16.757812 " fill-opacity="1" fill-rule="nonzero"/></g></svg>