<svg xmlns="http://www.w3.org/2000/svg" xmlns:xlink="http://www.w3.org/1999/xlink" width="150" zoomAndPan="magnify" viewBox="0 0 112.5 112.499997" height="150" preserveAspectRatio="xMidYMid meet" version="1.0"><defs><clipPath id="9fa0dce0af"><path d="M 0 0 L 112.003906 0 L 112.003906 112.003906 L 0 112.003906 Z M 0 0 " clip-rule="nonzero"/></clipPath><clipPath id="d6f752ccd6"><path d="M 56 0 C 25.074219 0 0 25.074219 0 56 C 0 86.929688 25.074219 112.003906 56 112.003906 C 86.929688 112.003906 112.003906 86.929688 112.003906 56 C 112.003906 25.074219 86.929688 0 56 0 Z M 56 0 " clip-rule="nonzero"/></clipPath><clipPath id="684f315046"><path d="M 0 0 L 112.003906 0 L 112.003906 112.003906 L 0 112.003906 Z M 0 0 " clip-rule="nonzero"/></clipPath><clipPath id="e883293924"><path d="M 56 0 C 25.074219 0 0 25.074219 0 56 C 0 86.929688 25.074219 112.003906 56 112.003906 C 86.929688 112.003906 112.003906 86.929688 112.003906 56 C 112.003906 25.074219 86.929688 0 56 0 Z M 56 0 " clip-rule="nonzero"/></clipPath><clipPath id="f3e925893c"><rect x="0" width="113" y="0" height="113"/></clipPath><clipPath id="e14d152f90"><path d="M 35.921875 31.40625 L 74.003906 31.40625 L 74.003906 90.394531 L 35.921875 90.394531 Z M 35.921875 31.40625 " clip-rule="nonzero"/></clipPath></defs><g clip-path="url(#9fa0dce0af)"><g clip-path="url(#d6f752ccd6)"><g transform="matrix(1, 0, 0, 1, 0, -0.000000000000000624)"><g clip-path="url(#f3e925893c)"><g clip-path="url(#684f315046)"><g clip-path="url(#e883293924)"><path fill="#ffffff" d="M 0 0 L 112.003906 0 L 112.003906 112.003906 L 0 112.003906 Z M 0 0 " fill-opacity="1" fill-rule="nonzero"/></g></g></g></g><path stroke-linecap="butt" transform="matrix(0.746681, 0, 0, 0.746681, 0.0000015, 0.000000995575)" fill="none" stroke-linejoin="miter" d="M 74.998522 -0.00000133333 C 33.58088 -0.00000133333 -0.00000200889 33.580881 -0.00000200889 74.998522 C -0.00000200889 116.421396 33.58088 150.002277 74.998522 150.002277 C 116.421395 150.002277 150.002277 116.421396 150.002277 74.998522 C 150.002277 33.580881 116.421395 -0.00000133333 74.998522 -0.00000133333 Z M 74.998522 -0.00000133333 " stroke="#1e1c1c" stroke-width="8" stroke-opacity="1" stroke-miterlimit="4"/></g></g><g clip-path="url(#e14d152f90)"><path fill="#4b58ff" d="M 54.84375 -13.246094 C 19.429688 -13.246094 -9.355469 15.542969 -9.355469 50.910156 C -9.355469 51.898438 -9.308594 74.90625 9.703125 98.992188 C 9.820312 99.109375 20.816406 111.304688 20.816406 137.554688 C 20.816406 139.71875 22.554688 141.457031 24.742188 141.457031 L 85.019531 141.457031 C 87.207031 141.457031 88.921875 139.71875 88.921875 137.554688 C 88.921875 111.589844 99.941406 99.109375 100.199219 98.757812 C 119.046875 74.90625 119.070312 51.898438 119.070312 50.957031 C 119.046875 15.542969 90.238281 -13.246094 54.84375 -13.246094 Z M 94.277344 93.703125 C 93.761719 94.269531 82.246094 107.078125 81.1875 133.679688 L 28.5 133.679688 C 27.445312 107.078125 15.929688 94.269531 15.601562 93.941406 C -1.460938 72.34375 -1.554688 51.191406 -1.554688 50.957031 C -1.554688 19.84375 23.753906 -5.464844 54.84375 -5.464844 C 85.960938 -5.464844 111.246094 19.84375 111.246094 50.957031 C 111.246094 51.191406 111.152344 72.34375 94.277344 93.703125 Z M 94.277344 93.703125 " fill-opacity="1" fill-rule="nonzero"/></g><path fill="#4b58ff" d="M 58.605469 49.945312 L 67.746094 36.597656 C 68.21875 35.894531 68.265625 34.976562 67.886719 34.203125 C 67.488281 33.449219 66.691406 32.980469 65.867188 32.980469 L 44.410156 32.980469 C 43.355469 32.980469 42.4375 33.707031 42.179688 34.742188 L 36.726562 56.925781 C 36.46875 58.078125 37.054688 59.230469 38.160156 59.628906 L 50.570312 64.351562 L 46.527344 86.535156 C 46.316406 87.59375 46.902344 88.652344 47.914062 89.074219 C 48.21875 89.167969 48.5 89.238281 48.804688 89.238281 C 49.535156 89.238281 50.261719 88.910156 50.710938 88.253906 L 72.683594 56.738281 C 73.105469 56.128906 73.175781 55.328125 72.917969 54.625 C 72.683594 53.917969 72.09375 53.378906 71.367188 53.214844 Z M 58.605469 49.945312 " fill-opacity="1" fill-rule="nonzero"/></svg>