<svg width="231" height="67" viewBox="0 0 231 67" fill="none" xmlns="http://www.w3.org/2000/svg">
<g clip-path="url(#clip0_70018_400)">
<path d="M0.377441 65.339V8.69312H37.6066V19.5264H13.1691V31.2556H35.4399V42.0264H13.1691V54.4223H38.5024V65.339H0.377441Z" fill="white"/>
<path d="M59.381 66.464C55.1727 66.464 51.4487 65.5108 48.2144 63.6098C44.9748 61.6931 42.4279 59.0473 40.5685 55.6723C38.7039 52.2973 37.7769 48.4223 37.7769 44.0473C37.7769 39.6879 38.7039 35.8337 40.5685 32.4848C42.4279 29.141 44.9748 26.5056 48.2144 24.5889C51.4487 22.6723 55.1727 21.7139 59.381 21.7139C62.0164 21.7139 64.4696 22.1098 66.7352 22.9014C69.0112 23.6827 71.0685 24.7712 72.9019 26.1723V5.44312H85.1935V65.339H76.0477L74.5894 60.4848C72.6987 62.3754 70.4539 63.8494 67.8602 64.9015C65.2769 65.9431 62.4487 66.464 59.381 66.464ZM49.9019 44.0473C49.9019 47.5056 50.9904 50.3389 53.1727 52.5473C55.3654 54.7556 58.1935 55.8598 61.6519 55.8598C65.0946 55.8598 67.8914 54.7556 70.0477 52.5473C72.2144 50.3389 73.2977 47.5056 73.2977 44.0473C73.2977 40.6046 72.2144 37.7764 70.0477 35.5681C67.8914 33.3494 65.0946 32.2348 61.6519 32.2348C58.1935 32.2348 55.3654 33.3494 53.1727 35.5681C50.9904 37.7764 49.9019 40.6046 49.9019 44.0473Z" fill="white"/>
<path d="M89.4679 65.339V22.839H101.78V65.339H89.4679ZM87.697 9.08899C87.697 6.82857 88.4314 4.97961 89.9054 3.54732C91.3897 2.12024 93.3012 1.40149 95.6345 1.40149C97.9939 1.40149 99.9054 2.12024 101.364 3.54732C102.822 4.97961 103.551 6.82857 103.551 9.08899C103.551 11.3546 102.822 13.2036 101.364 14.6307C99.9054 16.0629 97.9939 16.7765 95.6345 16.7765C93.3012 16.7765 91.3897 16.0629 89.9054 14.6307C88.4314 13.2036 87.697 11.3546 87.697 9.08899Z" fill="white"/>
<path d="M122.409 66.464C118.518 66.464 115.128 65.8442 112.242 64.6098C109.367 63.3754 107.128 61.6515 105.534 59.4432C103.935 57.2244 103.138 54.6254 103.138 51.6515H115.201C115.253 53.3911 115.93 54.7713 117.222 55.7973C118.524 56.8129 120.31 57.3182 122.576 57.3182C124.518 57.3182 126.024 56.9588 127.097 56.2348C128.18 55.5004 128.722 54.5161 128.722 53.2765C128.722 51.9327 127.992 50.8129 126.534 49.9223C125.076 49.0369 122.701 48.3182 119.409 47.7765C114.018 46.8077 110.055 45.2452 107.513 43.089C104.982 40.9223 103.722 38.089 103.722 34.589C103.722 30.4379 105.268 27.2557 108.367 25.0473C111.461 22.8286 115.873 21.714 121.597 21.714C127.263 21.714 131.701 22.9327 134.909 25.3598C138.117 27.7921 139.857 31.2452 140.138 35.714H128.409C128.294 34.1046 127.628 32.8546 126.409 31.964C125.201 31.0629 123.565 30.6098 121.513 30.6098C119.68 30.6098 118.232 30.964 117.18 31.6723C116.138 32.3702 115.617 33.339 115.617 34.589C115.617 35.8807 116.305 36.8963 117.68 37.6307C119.055 38.3546 121.544 39.089 125.159 39.839C135.628 41.9536 140.867 46.4588 140.867 53.3598C140.867 57.4015 139.232 60.5994 135.972 62.9432C132.706 65.2921 128.185 66.464 122.409 66.464Z" fill="white"/>
<path d="M163.201 66.464C158.503 66.464 154.357 65.5161 150.763 63.6307C147.18 61.7452 144.373 59.1202 142.347 55.7557C140.331 52.3807 139.326 48.4796 139.326 44.0473C139.326 39.6307 140.331 35.7504 142.347 32.4015C144.373 29.0577 147.18 26.4379 150.763 24.5473C154.357 22.6619 158.503 21.714 163.201 21.714C167.894 21.714 172.034 22.6619 175.618 24.5473C179.201 26.4379 181.993 29.0577 183.993 32.4015C185.993 35.7504 186.993 39.6307 186.993 44.0473C186.993 48.4796 185.993 52.3807 183.993 55.7557C181.993 59.1202 179.201 61.7452 175.618 63.6307C172.034 65.5161 167.894 66.464 163.201 66.464ZM151.451 44.0473C151.451 47.5057 152.539 50.339 154.722 52.5473C156.914 54.7557 159.743 55.8598 163.201 55.8598C166.644 55.8598 169.441 54.7557 171.597 52.5473C173.763 50.339 174.847 47.5057 174.847 44.0473C174.847 40.5473 173.763 37.7088 171.597 35.5265C169.441 33.3338 166.644 32.2348 163.201 32.2348C159.743 32.2348 156.914 33.3338 154.722 35.5265C152.539 37.7088 151.451 40.5473 151.451 44.0473Z" fill="white"/>
<path d="M188.266 65.339V22.839H197.411L198.703 27.6307C200.437 25.6307 202.526 24.1463 204.974 23.1723C207.432 22.2036 210.063 21.714 212.87 21.714C218.422 21.714 222.776 23.4432 225.932 26.9015C229.099 30.3494 230.682 35.0161 230.682 40.9015V44.5H218.37V42.1932C218.37 39.0682 217.625 36.6307 216.141 34.8807C214.667 33.1202 212.604 32.2348 209.953 32.2348C207.146 32.2348 204.88 33.2088 203.161 35.1515C201.438 37.0994 200.578 39.7452 200.578 43.089V65.339H188.266Z" fill="white"/>
<mask id="mask0_70018_400" style="mask-type:luminance" maskUnits="userSpaceOnUse" x="214" y="46" width="17" height="20">
<path d="M214.12 46.2135H230.38V65.8385H214.12V46.2135Z" fill="white"/>
</mask>
<g mask="url(#mask0_70018_400)">
<mask id="mask1_70018_400" style="mask-type:luminance" maskUnits="userSpaceOnUse" x="214" y="46" width="17" height="20">
<path d="M219.714 46.2135H230.38L224.787 65.8073H214.12L219.714 46.2135Z" fill="white"/>
</mask>
<g mask="url(#mask1_70018_400)">
<mask id="mask2_70018_400" style="mask-type:luminance" maskUnits="userSpaceOnUse" x="213" y="45" width="19" height="22">
<path d="M231.167 45.5H213.833V66.8333H231.167V45.5Z" fill="white"/>
</mask>
<g mask="url(#mask2_70018_400)">
<mask id="mask3_70018_400" style="mask-type:luminance" maskUnits="userSpaceOnUse" x="214" y="46" width="17" height="20">
<path d="M214.12 46.2135H230.38V65.8385H214.12V46.2135Z" fill="white"/>
</mask>
<g mask="url(#mask3_70018_400)">
<mask id="mask4_70018_400" style="mask-type:luminance" maskUnits="userSpaceOnUse" x="214" y="46" width="17" height="20">
<path d="M219.714 46.2135H230.38L224.787 65.8073H214.12L219.714 46.2135Z" fill="white"/>
</mask>
<g mask="url(#mask4_70018_400)">
<path d="M214.12 46.2135H230.38V65.776H214.12V46.2135Z" fill="white"/>
</g>
</g>
</g>
</g>
</g>
<mask id="mask5_70018_400" style="mask-type:luminance" maskUnits="userSpaceOnUse" x="87" y="0" width="18" height="18">
<path d="M87.2551 0.505249H104.604V17.8542H87.2551V0.505249Z" fill="white"/>
</mask>
<g mask="url(#mask5_70018_400)">
<mask id="mask6_70018_400" style="mask-type:luminance" maskUnits="userSpaceOnUse" x="87" y="0" width="18" height="18">
<path d="M95.9322 0.505249C91.1405 0.505249 87.2551 4.38546 87.2551 9.17712C87.2551 13.9688 91.1405 17.8542 95.9322 17.8542C100.719 17.8542 104.604 13.9688 104.604 9.17712C104.604 4.38546 100.719 0.505249 95.9322 0.505249Z" fill="white"/>
</mask>
<g mask="url(#mask6_70018_400)">
<mask id="mask7_70018_400" style="mask-type:luminance" maskUnits="userSpaceOnUse" x="87" y="0" width="19" height="19">
<path d="M105.833 0.166748H87.1666V18.8334H105.833V0.166748Z" fill="white"/>
</mask>
<g mask="url(#mask7_70018_400)">
<mask id="mask8_70018_400" style="mask-type:luminance" maskUnits="userSpaceOnUse" x="87" y="0" width="18" height="18">
<path d="M87.2551 0.505249H104.604V17.8542H87.2551V0.505249Z" fill="white"/>
</mask>
<g mask="url(#mask8_70018_400)">
<mask id="mask9_70018_400" style="mask-type:luminance" maskUnits="userSpaceOnUse" x="87" y="0" width="18" height="18">
<path d="M95.9322 0.505249C91.1405 0.505249 87.2551 4.38546 87.2551 9.17712C87.2551 13.9688 91.1405 17.8542 95.9322 17.8542C100.719 17.8542 104.604 13.9688 104.604 9.17712C104.604 4.38546 100.719 0.505249 95.9322 0.505249Z" fill="white"/>
</mask>
<g mask="url(#mask9_70018_400)">
<path d="M87.2551 0.505249H104.604V17.8542H87.2551V0.505249Z" fill="white"/>
</g>
</g>
</g>
</g>
</g>
</g>
<defs>
<clipPath id="clip0_70018_400">
<rect width="231" height="67" fill="white"/>
</clipPath>
</defs>
</svg>
